<svg xmlns="http://www.w3.org/2000/svg" xmlns:xlink="http://www.w3.org/1999/xlink" xmlns:serif="http://www.serif.com/" width="100%" height="100%" viewBox="0 0 3371 485" xml:space="preserve" style="fill-rule:evenodd;clip-rule:evenodd;stroke-linejoin:round;stroke-miterlimit:2;">    <g transform="matrix(1,0,0,1,-4430,-892)">        <g id="Artboard2" transform="matrix(0.959306,0,0,0.641534,4561.42,947.172)">            <rect x="-137" y="-86" width="3514" height="756" style="fill:none;"></rect>            <g transform="matrix(409.546,0,0,612.407,606.772,509.138)">                <path d="M0.085,-0L0.085,-0.71L0.381,-0.71C0.412,-0.71 0.441,-0.704 0.467,-0.691C0.493,-0.678 0.516,-0.66 0.535,-0.639C0.554,-0.617 0.569,-0.592 0.58,-0.566C0.591,-0.539 0.596,-0.511 0.596,-0.483C0.596,-0.444 0.587,-0.407 0.57,-0.373C0.553,-0.337 0.528,-0.309 0.497,-0.288C0.466,-0.266 0.429,-0.255 0.387,-0.255L0.175,-0.255L0.175,-0L0.085,-0ZM0.175,-0.335L0.382,-0.335C0.407,-0.335 0.428,-0.342 0.447,-0.355C0.465,-0.368 0.479,-0.386 0.49,-0.409C0.5,-0.432 0.505,-0.456 0.505,-0.483C0.505,-0.511 0.499,-0.536 0.487,-0.559C0.475,-0.581 0.459,-0.598 0.44,-0.611C0.421,-0.624 0.399,-0.63 0.376,-0.63L0.175,-0.63L0.175,-0.335Z" style="fill:black;fill-rule:nonzero;"></path>            </g>            <g transform="matrix(409.546,0,0,612.407,860.282,509.138)">                <path d="M0.085,-0L0.085,-0.71L0.389,-0.71C0.42,-0.71 0.449,-0.704 0.475,-0.691C0.501,-0.678 0.524,-0.66 0.543,-0.639C0.562,-0.617 0.577,-0.592 0.588,-0.566C0.599,-0.539 0.604,-0.511 0.604,-0.483C0.604,-0.45 0.598,-0.419 0.586,-0.39C0.573,-0.361 0.556,-0.336 0.534,-0.315C0.511,-0.294 0.485,-0.28 0.455,-0.272L0.627,-0L0.525,-0L0.363,-0.255L0.175,-0.255L0.175,-0L0.085,-0ZM0.175,-0.335L0.39,-0.335C0.415,-0.335 0.436,-0.342 0.455,-0.356C0.473,-0.369 0.487,-0.387 0.498,-0.41C0.508,-0.433 0.513,-0.457 0.513,-0.483C0.513,-0.51 0.507,-0.534 0.495,-0.557C0.483,-0.579 0.467,-0.597 0.448,-0.61C0.429,-0.623 0.407,-0.63 0.384,-0.63L0.175,-0.63L0.175,-0.335Z" style="fill:black;fill-rule:nonzero;"></path>            </g>            <g transform="matrix(409.546,0,0,612.407,1123.21,509.138)">                <path d="M0.373,0.005C0.323,0.005 0.278,-0.005 0.237,-0.025C0.196,-0.045 0.161,-0.072 0.132,-0.107C0.102,-0.141 0.079,-0.18 0.063,-0.223C0.047,-0.266 0.039,-0.31 0.039,-0.355C0.039,-0.402 0.048,-0.448 0.065,-0.491C0.082,-0.534 0.105,-0.572 0.136,-0.606C0.166,-0.639 0.201,-0.666 0.242,-0.686C0.283,-0.705 0.327,-0.715 0.375,-0.715C0.425,-0.715 0.47,-0.705 0.511,-0.684C0.552,-0.663 0.587,-0.636 0.616,-0.601C0.645,-0.566 0.668,-0.528 0.684,-0.485C0.7,-0.442 0.708,-0.399 0.708,-0.354C0.708,-0.307 0.7,-0.262 0.683,-0.219C0.666,-0.175 0.643,-0.137 0.613,-0.104C0.582,-0.07 0.547,-0.043 0.506,-0.024C0.465,-0.005 0.421,0.005 0.373,0.005ZM0.13,-0.355C0.13,-0.319 0.136,-0.284 0.148,-0.251C0.159,-0.217 0.176,-0.187 0.197,-0.161C0.218,-0.135 0.244,-0.114 0.274,-0.099C0.304,-0.084 0.337,-0.076 0.374,-0.076C0.412,-0.076 0.446,-0.084 0.476,-0.1C0.506,-0.116 0.532,-0.137 0.553,-0.164C0.574,-0.191 0.59,-0.221 0.601,-0.254C0.612,-0.287 0.617,-0.321 0.617,-0.355C0.617,-0.391 0.611,-0.426 0.6,-0.459C0.588,-0.492 0.571,-0.522 0.55,-0.549C0.528,-0.575 0.502,-0.596 0.473,-0.611C0.443,-0.626 0.41,-0.633 0.374,-0.633C0.336,-0.633 0.302,-0.625 0.272,-0.61C0.242,-0.594 0.217,-0.573 0.196,-0.546C0.175,-0.519 0.158,-0.49 0.147,-0.457C0.136,-0.424 0.13,-0.39 0.13,-0.355Z" style="fill:black;fill-rule:nonzero;"></path>            </g>            <g transform="matrix(409.546,0,0,612.407,1433.24,509.138)">                <path d="M0.699,-0L0.699,-0.542L0.465,-0.125L0.41,-0.125L0.175,-0.542L0.175,-0L0.085,-0L0.085,-0.71L0.18,-0.71L0.437,-0.249L0.695,-0.71L0.789,-0.71L0.789,-0L0.699,-0Z" style="fill:black;fill-rule:nonzero;"></path>            </g>            <g transform="matrix(409.546,0,0,612.407,1795.28,509.138)">                <path d="M0.373,0.005C0.323,0.005 0.278,-0.005 0.237,-0.025C0.196,-0.045 0.161,-0.072 0.132,-0.107C0.102,-0.141 0.079,-0.18 0.063,-0.223C0.047,-0.266 0.039,-0.31 0.039,-0.355C0.039,-0.402 0.048,-0.448 0.065,-0.491C0.082,-0.534 0.105,-0.572 0.136,-0.606C0.166,-0.639 0.201,-0.666 0.242,-0.686C0.283,-0.705 0.327,-0.715 0.375,-0.715C0.425,-0.715 0.47,-0.705 0.511,-0.684C0.552,-0.663 0.587,-0.636 0.616,-0.601C0.645,-0.566 0.668,-0.528 0.684,-0.485C0.7,-0.442 0.708,-0.399 0.708,-0.354C0.708,-0.307 0.7,-0.262 0.683,-0.219C0.666,-0.175 0.643,-0.137 0.613,-0.104C0.582,-0.07 0.547,-0.043 0.506,-0.024C0.465,-0.005 0.421,0.005 0.373,0.005ZM0.13,-0.355C0.13,-0.319 0.136,-0.284 0.148,-0.251C0.159,-0.217 0.176,-0.187 0.197,-0.161C0.218,-0.135 0.244,-0.114 0.274,-0.099C0.304,-0.084 0.337,-0.076 0.374,-0.076C0.412,-0.076 0.446,-0.084 0.476,-0.1C0.506,-0.116 0.532,-0.137 0.553,-0.164C0.574,-0.191 0.59,-0.221 0.601,-0.254C0.612,-0.287 0.617,-0.321 0.617,-0.355C0.617,-0.391 0.611,-0.426 0.6,-0.459C0.588,-0.492 0.571,-0.522 0.55,-0.549C0.528,-0.575 0.502,-0.596 0.473,-0.611C0.443,-0.626 0.41,-0.633 0.374,-0.633C0.336,-0.633 0.302,-0.625 0.272,-0.61C0.242,-0.594 0.217,-0.573 0.196,-0.546C0.175,-0.519 0.158,-0.49 0.147,-0.457C0.136,-0.424 0.13,-0.39 0.13,-0.355Z" style="fill:black;fill-rule:nonzero;"></path>            </g>            <g transform="matrix(409.546,0,0,612.407,2092.79,509.138)">                <path d="M0.085,-0L0.085,-0.71L0.175,-0.71L0.175,-0.08L0.571,-0.08L0.571,-0L0.085,-0Z" style="fill:black;fill-rule:nonzero;"></path>            </g>            <g transform="matrix(409.546,0,0,612.407,2342.43,509.138)">                <path d="M0.301,-0.71L0.377,-0.71L0.667,-0L0.571,-0L0.487,-0.208L0.189,-0.208L0.106,-0L0.01,-0L0.301,-0.71ZM0.467,-0.278L0.339,-0.606L0.207,-0.278L0.467,-0.278Z" style="fill:black;fill-rule:nonzero;"></path>            </g>            <g transform="matrix(409.546,0,0,612.407,2584.47,509.138)">                <path d="M0.112,-0.71L0.327,-0.34L0.544,-0.71L0.642,-0.71L0.372,-0.259L0.372,-0L0.282,-0L0.282,-0.261L0.013,-0.71L0.112,-0.71Z" style="fill:black;fill-rule:nonzero;"></path>            </g>            <g transform="matrix(409.546,0,0,612.407,2846.99,509.138)">                <path d="M0.567,-0.08L0.567,-0L0.085,-0L0.085,-0.71L0.558,-0.71L0.558,-0.63L0.175,-0.63L0.175,-0.4L0.508,-0.4L0.508,-0.325L0.175,-0.325L0.175,-0.08L0.567,-0.08Z" style="fill:black;fill-rule:nonzero;"></path>            </g>            <g transform="matrix(409.546,0,0,612.407,3099.68,509.138)">                <path d="M0.085,-0L0.085,-0.71L0.389,-0.71C0.42,-0.71 0.449,-0.704 0.475,-0.691C0.501,-0.678 0.524,-0.66 0.543,-0.639C0.562,-0.617 0.577,-0.592 0.588,-0.566C0.599,-0.539 0.604,-0.511 0.604,-0.483C0.604,-0.45 0.598,-0.419 0.586,-0.39C0.573,-0.361 0.556,-0.336 0.534,-0.315C0.511,-0.294 0.485,-0.28 0.455,-0.272L0.627,-0L0.525,-0L0.363,-0.255L0.175,-0.255L0.175,-0L0.085,-0ZM0.175,-0.335L0.39,-0.335C0.415,-0.335 0.436,-0.342 0.455,-0.356C0.473,-0.369 0.487,-0.387 0.498,-0.41C0.508,-0.433 0.513,-0.457 0.513,-0.483C0.513,-0.51 0.507,-0.534 0.495,-0.557C0.483,-0.579 0.467,-0.597 0.448,-0.61C0.429,-0.623 0.407,-0.63 0.384,-0.63L0.175,-0.63L0.175,-0.335Z" style="fill:black;fill-rule:nonzero;"></path>            </g>            <g transform="matrix(0.953128,0,0,1.42524,-326.638,-1500.58)">                <path d="M716.015,1126.73L758.962,1104.49L545.465,996.897L502.106,996.897L200.058,1148.53L524.087,1311.46L803.874,1170.81L803.874,1230L523.252,1370.46L200.314,1208.99L200.314,1354.83L524.229,1518.21L848.534,1355.93L848.534,1312.18L524.411,1473.11L243.789,1334.23L243.789,1275.86L523.692,1413.94L848.452,1252.34L848.452,1149.8L803.637,1126.5L523.263,1266.45L287.694,1149.09L523.752,1031.05L716.015,1126.73Z" style="fill:black;"></path>            </g>            <g transform="matrix(0.953128,0,0,1.42524,-326.638,-1500.58)">                <path d="M378.023,1148.71L419.319,1171.68L494.089,1134.19L494.089,1177.51L551.685,1177.51L551.685,1133.05L625.211,1170.53L669.803,1149.08L522.919,1075.42L378.023,1148.71Z" style="fill:black;"></path>            </g>        </g>    </g></svg>