<?xml version="1.0" encoding="UTF-8" standalone="no"?>
<!DOCTYPE svg PUBLIC "-//W3C//DTD SVG 1.1//EN" "http://www.w3.org/Graphics/SVG/1.1/DTD/svg11.dtd">
<svg width="100%" height="100%" viewBox="0 0 512 512" version="1.1" xmlns="http://www.w3.org/2000/svg" xmlns:xlink="http://www.w3.org/1999/xlink" xml:space="preserve" xmlns:serif="http://www.serif.com/" style="fill-rule:evenodd;clip-rule:evenodd;stroke-linejoin:round;stroke-miterlimit:2;">
    <g transform="matrix(1,0,0,1,-562,0)">
        <rect id="Shopify-Icon" serif:id="Shopify Icon" x="562" y="0" width="512" height="512" style="fill:none;"/>
        <g id="Shopify-Icon1" serif:id="Shopify Icon">
            <rect x="562" y="0" width="512" height="512" style="fill:rgb(92,61,194);"/>
            <g transform="matrix(0.549078,0,0,0.549078,530.12,-434.494)">
                <path d="M716.015,1126.73L758.962,1104.49L545.465,996.897L502.106,996.897L200.058,1148.53L524.087,1311.46L803.874,1170.81L803.874,1230L523.252,1370.46L200.314,1208.99L200.314,1354.83L524.229,1518.21L848.534,1355.93L848.534,1312.18L524.411,1473.11L243.789,1334.23L243.789,1275.86L523.692,1413.94L848.452,1252.34L848.452,1149.8L803.637,1126.5L523.263,1266.45L287.694,1149.09L523.752,1031.05L716.015,1126.73Z" style="fill:white;"/>
            </g>
            <g transform="matrix(0.549078,0,0,0.549078,530.12,-434.494)">
                <path d="M378.023,1148.71L419.319,1171.68L494.089,1134.19L494.089,1177.51L551.685,1177.51L551.685,1133.05L625.211,1170.53L669.803,1149.08L522.919,1075.42L378.023,1148.71Z" style="fill:white;"/>
            </g>
        </g>
    </g>
</svg>
